<?xml version="1.0" standalone="no"?><svg xmlns="http://www.w3.org/2000/svg" viewBox="0 0 1440 320"><path fill="#000b76" fill-opacity="1" d="M0,288L30,245.3C60,203,120,117,180,112C240,107,300,181,360,218.7C420,256,480,256,540,234.7C600,213,660,171,720,160C780,149,840,171,900,181.3C960,192,1020,192,1080,213.3C1140,235,1200,277,1260,256C1320,235,1380,149,1410,106.7L1440,64L1440,0L1410,0C1380,0,1320,0,1260,0C1200,0,1140,0,1080,0C1020,0,960,0,900,0C840,0,780,0,720,0C660,0,600,0,540,0C480,0,420,0,360,0C300,0,240,0,180,0C120,0,60,0,30,0L0,0Z"></path></svg>